PERFORMER "Sasha"
TITLE "Essential Mix (2005-05-22)"
FILE "01-sasha_-_essential_mix-sat-05-22-2005.mp3" MP3
  TRACK 01 AUDIO
    TITLE "Intro (Badger - Rise of the Machines)"
    PERFORMER "Sasha"
    INDEX 01 00:00:00
  TRACK 02 AUDIO
    TITLE "Abstract Forward Motion"
    PERFORMER "Detroit Escalator Company"
    INDEX 01 02:46:67
  TRACK 03 AUDIO
    TITLE "Kiss Ya Lips"
    PERFORMER "Ian Brown"
    INDEX 01 08:46:42
  TRACK 04 AUDIO
    TITLE "Hella Good (Sharam Jay mix)"
    PERFORMER "No Doubt"
    INDEX 01 15:20:32
  TRACK 05 AUDIO
    TITLE "Passive Massive (Edit)"
    PERFORMER "Timo Maas"
    INDEX 01 19:50:48
  TRACK 06 AUDIO
    TITLE "Tip Toe (Jonathan Hart Bootleg)"
    PERFORMER "Glitch"
    INDEX 01 24:11:57
  TRACK 07 AUDIO
    TITLE "Landline"
    PERFORMER "Morgan Page"
    INDEX 01 29:36:00
  TRACK 08 AUDIO
    TITLE "Lovefood"
    PERFORMER "Michael Mayer"
    INDEX 01 37:13:51
  TRACK 09 AUDIO
    TITLE "Easy Lee (Smith 'n' Hack Remix)"
    PERFORMER "Ricardo Villalobos"
    INDEX 01 40:30:83
  TRACK 10 AUDIO
    TITLE "Science (Aril Brikha Remix)/Sasha - Wavy Gravy (Edit)"
    PERFORMER "Jori Hulkkonen"
    INDEX 01 45:59:21
  TRACK 11 AUDIO
    TITLE "Ride The Pain (Thin White Duke Mix)"
    PERFORMER "Juliet"
    INDEX 01 59:05:37
  TRACK 12 AUDIO
    TITLE "Zu Fuss"
    PERFORMER "Extrawelt"
    INDEX 01 64:24:29
  TRACK 13 AUDIO
    TITLE "New Light"
    PERFORMER "Spooky"
    INDEX 01 69:55:25
  TRACK 14 AUDIO
    TITLE "Breathe Me (Ulrich Schnauss Remix)"
    PERFORMER "Sia"
    INDEX 01 75:50:35
  TRACK 15 AUDIO
    TITLE "The Wall (The Egg Re-Edit)"
    PERFORMER "The Egg"
    INDEX 01 81:37:66
  TRACK 16 AUDIO
    TITLE "Lo-Fiction (Dub Mix)"
    PERFORMER "Jori Hulkkonnen feat. Jerry Valuri"
    INDEX 01 87:58:53
  TRACK 17 AUDIO
    TITLE "Feel Good Inc (Acapella)/Sasha - Wavy Gravy (Edit)"
    PERFORMER "Gorillaz"
    INDEX 01 95:10:67
  TRACK 18 AUDIO
    TITLE "Teen Angst (Luciano Mix) (Sasha Edit)"
    PERFORMER "M83"
    INDEX 01 103:00:22
  TRACK 19 AUDIO
    TITLE "Raining Again (Ewan Pearson Dub)/Thomas Newman - Drive Away"
    PERFORMER "Moby"
    INDEX 01 109:46:52
  TRACK 20 AUDIO
    TITLE "Outro"
    PERFORMER "Sasha"
    INDEX 01 117:23:82
